#!OML:ASF H:\ManfredObstacles\Project 1\Capture day 1\Session 1\Male.ASF
:FULLY-SPECIFIED
:DEGREES
415
root -5.36155 16.7643 -11.7014 -165.647 -60.8079 -184.56
lowerback -12.3242 -2.195 -2.69835
upperback 1.80398 -2.69275 1.91081
thorax 9.09498 -1.5021 3.0308
lowerneck -4.40969 2.54056 -5.79315
upperneck -5.51991 3.574 3.90195
head -1.1725 1.80305 2.23924
rclavicle 7.65321e-015 -3.18055e-015
rhumerus -32.7249 -25.3268 -74.8634
rradius 23.0036
rwrist 36.5221
rhand 0.51993 -5.96143
rfingers 7.12502
rthumb 26.0883 -34.1897
lclavicle 7.65321e-015 -3.18055e-015
lhumerus -24.2005 2.79984 93.9441
lradius 19.2311
lwrist -28.0153
lhand -9.71126 7.72044
lfingers 7.12502
lthumb 16.2617 37.0585
rfemur -25.579 -9.87466 21.418
rtibia 24.7717
rfoot -16.6251 6.93905
rtoes 19.7851
lfemur 5.45091 -8.94293 -13.2323
ltibia 13.0526
lfoot 25.8834 -9.76815
ltoes 15.4937
416
root -5.37264 16.7623 -11.7092 -166.28 -60.9471 -183.897
lowerback -12.279 -2.25625 -2.39778
upperback 1.82256 -2.83707 2.05184
thorax 9.09241 -1.56194 2.9834
lowerneck -4.40985 2.58024 -5.79806
upperneck -5.54649 3.62491 3.85798
head -1.18279 1.82862 2.22539
rclavicle -6.10269e-014 2.22639e-014
rhumerus -32.6854 -25.2171 -74.8771
rradius 22.9561
rwrist 36.5435
rhand 0.54356 -5.92512
rfingers 7.12502
rthumb 26.1109 -34.15
lclavicle -6.10269e-014 2.22639e-014
lhumerus -24.2229 3.96959 93.3993
lradius 18.7452
lwrist -28.9239
lhand -9.53453 8.22448
lfingers 7.12502
lthumb 16.4318 37.5485
rfemur -25.453 -9.91938 21.8065
rtibia 24.7821
rfoot -16.48 6.857
rtoes 19.4741
lfemur 5.57192 -9.02603 -12.8327
ltibia 12.9613
lfoot 26.1403 -9.5972
ltoes 15.9983
417
root -5.38579 16.7621 -11.7172 -166.358 -60.8423 -183.934
lowerback -12.2015 -2.36705 -2.47985
upperback 1.85793 -2.97187 2.03493
thorax 9.10025 -1.63113 2.98581
lowerneck -4.47895 2.72971 -5.58904
upperneck -5.52773 3.81822 3.84119
head -1.16963 1.92096 2.18254
rclavicle 3.8266e-014 9.54166e-015
rhumerus -32.5806 -25.3383 -74.9636
rradius 22.7658
rwrist 37.0501
rhand 0.57262 -5.83808
rfingers 7.12502
rthumb 26.1387 -34.0589
lclavicle 3.8266e-014 9.54166e-015
lhumerus -24.347 5.18528 92.6547
lradius 18.3476
lwrist -29.7024
lhand -9.74351 7.96944
lfingers 7.12502
lthumb 16.2306 37.31
rfemur -25.2709 -9.85812 21.7484
rtibia 24.7471
rfoot -16.2476 7.01881
rtoes 20.0366
lfemur 5.75403 -9.09358 -12.9294
ltibia 13.019
lfoot 26.0725 -9.66976
ltoes 15.4039
418
root -5.40011 16.7614 -11.7278 -165.87 -60.7459 -184.504
lowerback -12.251 -2.48646 -2.84562
upperback 1.86491 -3.06565 1.96038
thorax 9.16062 -1.6931 3.09177
lowerneck -4.54319 2.8569 -5.40466
upperneck -5.53503 3.9827 3.85275
head -1.16512 1.99892 2.15363
rclavicle 1.66979e-014 9.54166e-015
rhumerus -32.4956 -25.5366 -74.9765
rradius 22.5653
rwrist 37.557
rhand 0.626794 -5.73256
rfingers 7.12502
rthumb 26.1906 -33.9457
lclavicle 1.66979e-014 9.54166e-015
lhumerus -24.5102 6.20405 91.9862
lradius 17.985
lwrist -30.3435
lhand -9.9619 7.93245
lfingers 7.12502
lthumb 16.0203 37.2901
rfemur -25.2212 -9.88568 21.4318
rtibia 24.7714
rfoot -16.1551 7.24565
rtoes 21.1488
lfemur 5.88631 -9.10553 -13.2829
ltibia 12.9341
lfoot 26.0404 -9.94016
ltoes 14.2345
419
root -5.4102 16.7622 -11.74 -166.191 -60.9124 -183.971
lowerback -12.4211 -2.52016 -2.64078
upperback 1.82208 -3.15247 2.08565
thorax 9.21505 -1.72907 3.08761
lowerneck -4.51393 2.86074 -5.55936
upperneck -5.63017 3.99596 4.00431
head -1.20916 2.00639 2.23107
rclavicle 4.6615e-014 -1.11319e-014
rhumerus -32.456 -25.4661 -74.9454
rradius 22.4432
rwrist 37.6428
rhand 0.538223 -5.67393
rfingers 7.12502
rthumb 26.1058 -33.8996
lclavicle 4.6615e-014 -1.11319e-014
lhumerus -24.6531 6.87624 91.5797
lradius 17.6881
lwrist -30.8319
lhand -9.93698 8.22263
lfingers 7.12502
lthumb 16.0443 37.5783
rfemur -25.3195 -9.92599 21.7921
rtibia 24.7814
rfoot -16.1226 7.26272
rtoes 21.4877
lfemur 5.77044 -8.98478 -12.8556
ltibia 12.833
lfoot 26.2693 -10.2355
ltoes 13.631
420
root -5.42378 16.7674 -11.7496 -166.088 -60.8016 -184.199
lowerback -12.328 -2.42189 -2.69113
upperback 1.81801 -3.00767 2.01558
thorax 9.14355 -1.65838 3.07392
lowerneck -4.4355 2.74512 -5.78978
upperneck -5.71876 3.85354 4.21649
head -1.2547 1.9373 2.3426
rclavicle -6.09275e-014 7.15625e-015
rhumerus -32.5913 -25.4974 -74.8839
rradius 22.4499
rwrist 37.5996
rhand 0.362511 -5.71055
rfingers 7.12502
rthumb 25.9375 -33.961
lclavicle -6.09275e-014 7.15625e-015
lhumerus -24.8568 7.1212 91.2609
lradius 17.4802
lwrist -31.104
lhand -9.77063 8.42862
lfingers 7.12502
lthumb 16.2045 37.7713
rfemur -25.1639 -10.0142 21.6664
rtibia 24.7812
rfoot -16.0196 7.48762
rtoes 21.9022
lfemur 5.93938 -9.01178 -13.0157
ltibia 12.799
lfoot 26.3509 -10.0776
ltoes 13.8087
421
root -5.43567 16.771 -11.7632 -166.179 -60.8126 -184.044
lowerback -12.3713 -2.24466 -2.52131
upperback 1.77492 -2.7913 1.96206
thorax 9.09171 -1.54212 2.96425
lowerneck -4.38042 2.55763 -5.88426
upperneck -5.78713 3.60942 4.36534
head -1.27847 1.81538 2.40939
rclavicle 4.9895e-014 5.56597e-015
rhumerus -32.8802 -25.8378 -74.7427
rradius 22.588
rwrist 37.5081
rhand 0.251235 -5.80606
rfingers 7.12502
rthumb 25.831 -34.072
lclavicle 4.9895e-014 5.56597e-015
lhumerus -25.0305 7.271 90.9144
lradius 17.2003
lwrist -31.6054
lhand -9.63955 8.32911
lfingers 7.12502
lthumb 16.3307 37.6615
rfemur -25.1205 -10.0247 21.7783
rtibia 24.7356
rfoot -16.0086 7.5239
rtoes 22.2034
lfemur 5.88297 -9.0873 -12.9109
ltibia 12.8671
lfoot 26.4557 -9.87697
ltoes 14.2649
